<svg xmlns="http://www.w3.org/2000/svg" viewBox="0 0 1200 420" role="img" aria-labelledby="title desc">
  <title id="title">Pyahu Toolchain</title>
  <desc id="desc">A practical mise setup for everyday developer CLI tools.</desc>
  <defs>
    <linearGradient id="background" x1="0" y1="0" x2="1" y2="1">
      <stop offset="0" stop-color="#0b1220"/>
      <stop offset="1" stop-color="#172554"/>
    </linearGradient>
    <linearGradient id="accent" x1="0" y1="0" x2="1" y2="0">
      <stop offset="0" stop-color="#818cf8"/>
      <stop offset="1" stop-color="#2dd4bf"/>
    </linearGradient>
    <linearGradient id="pyahu-body" x1="0" y1="0" x2="1" y2="1">
      <stop stop-color="#042DE8"/>
      <stop offset="1" stop-color="#064FFF"/>
    </linearGradient>
    <linearGradient id="pyahu-top" x1="0" y1="0" x2="1" y2="1">
      <stop stop-color="#0874FF"/>
      <stop offset="1" stop-color="#0060FF"/>
    </linearGradient>
  </defs>
  <rect width="1200" height="420" rx="28" fill="url(#background)"/>
  <circle cx="1090" cy="55" r="180" fill="#4051b5" opacity=".16"/>
  <circle cx="1130" cy="390" r="230" fill="#0f766e" opacity=".12"/>

  <g transform="translate(72 66) scale(.7666667)">
    <g transform="translate(20.695 8) scale(0.122066)">
      <path d="M110 0H385C536 0 644 126 644 272V394C644 489 606 551 522 600L218 734V754C218 816 164 852 91 852C31 852 0 815 0 758V575C0 514 25 475 78 444L218 362V532C233 519 251 508 282 493L422 421C454 404 470 380 470 345V278L380 222C358 203 334 190 305 190H108C47 190 4 157 4 103C4 45 46 0 110 0Z" fill="url(#pyahu-body)"/>
      <path d="M110 0H385C536 0 644 126 644 272V432C634 367 599 332 549 300L380 222C358 203 334 190 305 190H108C47 190 4 157 4 103C4 45 46 0 110 0Z" fill="url(#pyahu-top)"/>
      <path d="M218 362V754C218 816 164 852 91 852C31 852 0 815 0 758V575C0 514 25 475 78 444Z" fill="#0736E8"/>
      <circle cx="334" cy="326" r="91" fill="#0067FF"/>
    </g>
  </g>

  <text x="192" y="122" fill="#f8fafc" font-family="Inter, ui-sans-serif, system-ui, sans-serif" font-size="58" font-weight="700">Pyahu Toolchain</text>
  <rect x="72" y="180" width="470" height="5" rx="2.5" fill="url(#accent)"/>
  <text x="72" y="236" fill="#cbd5e1" font-family="Inter, ui-sans-serif, system-ui, sans-serif" font-size="28">A practical mise setup for everyday CLI tools.</text>

  <g font-family="Inter, ui-sans-serif, system-ui, sans-serif" font-size="18" font-weight="600">
    <g transform="translate(72 282)">
      <rect width="150" height="48" rx="24" fill="#1e293b" stroke="#475569"/>
      <text x="75" y="31" text-anchor="middle" fill="#e2e8f0">67 tools</text>
    </g>
    <g transform="translate(238 282)">
      <rect width="150" height="48" rx="24" fill="#1e293b" stroke="#475569"/>
      <text x="75" y="31" text-anchor="middle" fill="#e2e8f0">9 profiles</text>
    </g>
    <g transform="translate(404 282)">
      <rect width="310" height="48" rx="24" fill="#1e293b" stroke="#475569"/>
      <text x="155" y="31" text-anchor="middle" fill="#e2e8f0">Linux x64 · macOS arm64</text>
    </g>
  </g>

  <text x="72" y="376" fill="#94a3b8" font-family="ui-monospace, SFMono-Regular, Menlo, monospace" font-size="19">mise install · exact stable pins · safe uninstall</text>
</svg>
